<svg width="160" height="80" viewBox="0 0 160 80" fill="none" xmlns="http://www.w3.org/2000/svg">
<rect width="160" height="80" fill="#2DB3CE"/>
<path d="M40.6974 28.6L30.9374 51H26.8414L17.0494 28.6H21.5614L29.0174 45.88L36.5374 28.6H40.6974ZM60.0704 45.816H48.8704L46.6624 51H42.3744L52.4544 28.6H56.5504L66.6624 51H62.3104L60.0704 45.816ZM58.6944 42.552L54.4704 32.76L50.2784 42.552H58.6944ZM72.7111 28.6H76.8711V47.48H88.5831V51H72.7111V28.6ZM109.752 45.816H98.5516L96.3436 51H92.0556L102.136 28.6H106.232L116.344 51H111.992L109.752 45.816ZM108.376 42.552L104.152 32.76L99.9596 42.552H108.376ZM137.048 51L132.472 44.44C132.28 44.4613 131.992 44.472 131.608 44.472H126.552V51H122.392V28.6H131.608C133.55 28.6 135.235 28.92 136.664 29.56C138.115 30.2 139.224 31.1173 139.992 32.312C140.76 33.5067 141.144 34.9253 141.144 36.568C141.144 38.2533 140.728 39.704 139.896 40.92C139.086 42.136 137.912 43.0427 136.376 43.64L141.528 51H137.048ZM136.952 36.568C136.952 35.1387 136.483 34.04 135.544 33.272C134.606 32.504 133.23 32.12 131.416 32.12H126.552V41.048H131.416C133.23 41.048 134.606 40.664 135.544 39.896C136.483 39.1067 136.952 37.9973 136.952 36.568Z" fill="white"/>
</svg>
